<svg width="160" height="40" viewBox="0 0 160 40" xmlns="http://www.w3.org/2000/svg">
  <!-- Tooth Icon: Single color, compact -->
  <g transform="translate(5, 8)">
    <path d="M 6 6 
             C 6 4, 7 3, 9 2
             C 11 1, 13 1, 15 2
             C 15.5 2.5, 16 3, 16.5 4
             L 16.5 12
             C 16.5 13, 17 13.5, 17.5 14
             C 18 14.5, 19 14.5, 19.5 14
             C 20 13.5, 20.5 13, 20.5 12
             L 20.5 4
             C 20.5 3, 21 2.5, 21.5 2
             C 23 1, 24 1, 26 2
             C 28 3, 29 4, 29 6
             L 29 20
             C 29 21, 28.5 22, 27 22.5
             C 25.5 23, 24 24, 22.5 24.5
             C 21 25, 19.5 25.5, 18 25.5
             C 16.5 25.5, 15 25, 13.5 24.5
             C 12 24, 10.5 23, 9 22.5
             C 7.5 22, 7 21, 7 20
             Z" 
          fill="none" 
          stroke="#374151" 
          stroke-width="1.5" 
          stroke-linecap="round" 
          stroke-linejoin="round"/>
  </g>
  
  <!-- Text: Clinifly - Single color -->
  <text x="40" y="25" font-family="-apple-system, BlinkMacSystemFont, 'Segoe UI', Arial, sans-serif" font-size="16" font-weight="700" fill="#374151">Clinifly</text>
</svg>
