<svg width="40" height="40" viewBox="0 0 40 40" xmlns="http://www.w3.org/2000/svg">
  <defs>
    <linearGradient id="toothGradient" x1="0%" y1="0%" x2="0%" y2="100%">
      <stop offset="0%" style="stop-color:#374151;stop-opacity:1" />
      <stop offset="100%" style="stop-color:#6b7280;stop-opacity:1" />
    </linearGradient>
  </defs>
  
  <!-- Tooth Icon: Compact, single color for admin header -->
  <g transform="translate(2, 2)">
    <path d="M 6 8 
             C 6 5, 7.5 3, 10 2
             C 12.5 1, 16 1, 18 2
             C 18.5 2.5, 19 3, 19.5 4
             L 19.5 14
             C 19.5 15.5, 20 16.5, 21 17
             C 22 17.5, 23 17.5, 24 17
             C 25 16.5, 25.5 15.5, 25.5 14
             L 25.5 4
             C 25.5 3, 26 2.5, 26.5 2
             C 28 1, 30 1, 32 2
             C 34 3, 35.5 5, 35.5 8
             L 35.5 26
             C 35.5 27.5, 34.5 28.5, 33 29.5
             C 31.5 30.5, 29.5 31.5, 27.5 32.5
             C 25.5 33.5, 23.5 34, 21.5 34
             C 19.5 34, 17.5 33.5, 15.5 32.5
             C 13.5 31.5, 11.5 30.5, 9.5 29.5
             C 8 28.5, 7 27.5, 7 26
             Z" 
          fill="none" 
          stroke="url(#toothGradient)" 
          stroke-width="2" 
          stroke-linecap="round" 
          stroke-linejoin="round"/>
    
    <!-- Simple internal detail -->
    <path d="M 11 12 C 14 11, 18 11, 21 12" 
          fill="none" 
          stroke="url(#toothGradient)" 
          stroke-width="1" 
          stroke-linecap="round" 
          opacity="0.6"/>
  </g>
</svg>
