<svg xmlns="http://www.w3.org/2000/svg" width="640" height="400" viewBox="0 0 640 400">
  <rect width="640" height="400" fill="#111827"/>
  <text x="24" y="36" fill="#e5e7eb" font-family="system-ui,sans-serif" font-size="18" font-weight="700">Public Directory Profile</text>
  <rect x="24" y="52" width="592" height="72" rx="10" fill="#1f2937" stroke="#374151"/>
  <circle cx="68" cy="88" r="28" fill="none" stroke="#2563eb" stroke-width="4"/>
  <text x="58" y="94" fill="#2563eb" font-family="system-ui,sans-serif" font-size="14" font-weight="700">78%</text>
  <text x="112" y="80" fill="#e5e7eb" font-family="system-ui,sans-serif" font-size="12" font-weight="600">Profile completion</text>
  <rect x="112" y="88" width="64" height="18" rx="9" fill="rgba(16,185,129,0.2)"/>
  <text x="120" y="101" fill="#6ee7b7" font-family="system-ui,sans-serif" font-size="10">Logo </text>
  <rect x="184" y="88" width="80" height="18" rx="9" fill="rgba(239,68,68,0.15)"/>
  <text x="192" y="101" fill="#fca5a5" font-family="system-ui,sans-serif" font-size="10">Photos </text>
  <rect x="24" y="136" width="592" height="48" rx="10" fill="#065f46" stroke="#10b981"/>
  <text x="48" y="166" fill="#a7f3d0" font-family="system-ui,sans-serif" font-size="13" font-weight="600"> Publish to public directory</text>
  <rect x="24" y="196" width="592" height="180" rx="10" fill="#1f2937" stroke="#374151"/>
  <text x="44" y="224" fill="#93c5fd" font-family="system-ui,sans-serif" font-size="12" font-weight="700">Social &amp; Web · Reputation</text>
  <rect x="44" y="236" width="260" height="28" rx="6" fill="#111827" stroke="#4b5563"/>
  <text x="56" y="255" fill="#6b7280" font-family="system-ui,sans-serif" font-size="11">instagram.com/yourclinic</text>
  <rect x="316" y="236" width="260" height="28" rx="6" fill="#111827" stroke="#4b5563"/>
  <text x="328" y="255" fill="#6b7280" font-family="system-ui,sans-serif" font-size="11">Google Rating: 4.8 </text>
</svg>
