<svg xmlns="http://www.w3.org/2000/svg" width="640" height="400" viewBox="0 0 640 400">
  <rect width="640" height="400" fill="#111827"/>
  <rect x="0" y="0" width="180" height="400" fill="#1f2937"/>
  <text x="16" y="36" fill="#93c5fd" font-family="system-ui,sans-serif" font-size="12" font-weight="700">Clinifly</text>
  <rect x="12" y="60" width="156" height="28" rx="6" fill="#374151"/>
  <text x="24" y="78" fill="#9ca3af" font-family="system-ui,sans-serif" font-size="11">Dashboard</text>
  <rect x="12" y="96" width="156" height="28" rx="6" fill="#374151"/>
  <text x="24" y="114" fill="#9ca3af" font-family="system-ui,sans-serif" font-size="11">Patients</text>
  <rect x="12" y="132" width="156" height="28" rx="6" fill="rgba(37,99,235,0.3)" stroke="#2563eb"/>
  <text x="24" y="150" fill="#93c5fd" font-family="system-ui,sans-serif" font-size="11" font-weight="600">Settings</text>
  <text x="200" y="40" fill="#e5e7eb" font-family="system-ui,sans-serif" font-size="18" font-weight="700">Clinic Settings</text>
  <rect x="200" y="56" width="420" height="80" rx="10" fill="#1f2937" stroke="#374151"/>
  <text x="220" y="84" fill="#6ee7b7" font-family="system-ui,sans-serif" font-size="12" font-weight="700">AI Training Center</text>
  <text x="220" y="104" fill="#9ca3af" font-family="system-ui,sans-serif" font-size="11">Teach your AI how to talk to patients</text>
  <rect x="200" y="148" width="420" height="120" rx="10" fill="#1f2937" stroke="#374151"/>
  <text x="220" y="176" fill="#e5e7eb" font-family="system-ui,sans-serif" font-size="12" font-weight="600">Clinic Name · Address · Logo</text>
  <rect x="220" y="188" width="380" height="28" rx="6" fill="#111827" stroke="#4b5563"/>
  <rect x="220" y="228" width="120" height="32" rx="8" fill="#16a34a"/>
  <text x="248" y="249" fill="#fff" font-family="system-ui,sans-serif" font-size="12" font-weight="700">Save Settings</text>
</svg>
